<?xml version="1.0" encoding="UTF-8"?>
<svg id="Layer_1" data-name="Layer 1" xmlns="http://www.w3.org/2000/svg" viewBox="0 0 532.1636 163.3537">
  <defs>
    <style>
      .cls-1 {
        fill: #ffb308;
      }

      .cls-2 {
        fill: #fc002a;
      }

      .cls-3 {
        fill: #000035;
      }

      .cls-4 {
        fill: #52c9be;
      }

      .cls-5 {
        fill: #0047bb;
      }
    </style>
  </defs>
  <g>
    <path class="cls-3" d="M196.8763,69.8725V17.4903C196.8763,5.6436,202.4897.0303,214.3364.0303h26.9402c11.8467,0,17.4601,5.6133,17.4601,17.4601v11.0996h-11.9738v-10.724c0-4.9894-1.8698-6.8612-6.8592-6.8612h-24.3193c-4.8642,0-6.7341,1.8718-6.7341,6.8612v51.633c0,4.9875,1.8698,6.8592,6.7341,6.8592h24.3193c4.9894,0,6.8592-1.8718,6.8592-6.8592v-10.726h11.9738v11.0996c0,11.4731-5.6133,17.4601-17.4601,17.4601h-26.9402c-11.8467,0-17.4601-5.9869-17.4601-17.4601Z"/>
    <path class="cls-3" d="M270.8434.0303h56.4953v10.9744h-44.5234v26.1911h37.0422v10.9763h-37.0422v28.186h44.5234v10.9744h-56.4953V.0303Z"/>
    <path class="cls-3" d="M335.2659.0303h12.721l16.9613,71.9623L384.28.0303h10.4756l19.3318,71.9623L431.0488.0303h12.3474l-23.0734,87.3022h-12.5958l-18.2091-67.722-18.2091,67.722h-13.0945L335.2659.0303Z"/>
    <path class="cls-3" d="M453.6977.0303h45.0222c11.8487,0,17.4601,5.6133,17.4601,17.4601v52.3821c0,11.8487-5.6114,17.4601-17.4601,17.4601h-45.0222V.0303ZM497.3488,76.3581c4.9875,0,6.8592-1.8718,6.8592-6.8592V17.8659c0-4.9894-1.8718-6.8612-6.8592-6.8612h-31.6792v65.3534h31.6792Z"/>
  </g>
  <path class="cls-3" d="M529.2432,1.0295c.9039.5297,1.6097,1.2568,2.1193,2.1808.5089.9253.7634,1.9587.7634,3.1009,0,1.1429-.2545,2.1815-.7634,3.1165-.5096.935-1.2154,1.6673-2.1193,2.197-.9033.5297-1.927.7945-3.0692.7945-1.1429,0-2.1659-.2648-3.0698-.7945-.9039-.5297-1.6104-1.262-2.1193-2.197s-.7634-1.9736-.7634-3.1165c0-1.1422.2545-2.1756.7634-3.1009.5089-.924,1.2154-1.6512,2.1193-2.1808.9039-.5303,1.927-.7951,3.0698-.7951,1.1422,0,2.1659.2648,3.0692.7951ZM528.8385,10.9234c.779-.4565,1.3811-1.0904,1.8072-1.9011.4254-.81.6391-1.714.6391-2.7111s-.2137-1.8953-.6391-2.6956c-.4261-.7997-1.0282-1.4278-1.8072-1.8856-.7796-.4565-1.6673-.6851-2.6645-.6851-1.5171,0-2.7429.4934-3.6772,1.4802-.935.9868-1.4025,2.2488-1.4025,3.786,0,.9972.2124,1.9011.6384,2.7111.4261.8107,1.0231,1.4446,1.7923,1.9011.7679.4571,1.6518.6857,2.649.6857s1.8849-.2286,2.6645-.6857ZM528.3238,6.2335c-.3322.3425-.779.5452-1.3397.6074l1.9943,2.7739-1.1532.0311-1.9322-2.805h-.9661v2.805h-.9972V2.9772h2.7429c.6643,0,1.1888.1664,1.5735.4986.384.3322.5763.81.5763,1.4329,0,.5407-.1664.9816-.4986,1.3248ZM524.9269,5.9997h1.6518c.8521,0,1.2782-.3633,1.2782-1.0911,0-.3529-.1146-.6177-.3432-.7945-.2286-.1761-.5407-.2648-.935-.2648h-1.6518v2.1504Z"/>
  <path class="cls-3" d="M34.1994,82.4944c1.904-.4967,3.7856-1.0914,5.6429-1.7636-1.8535-.6706-3.7313-1.2645-5.6309-1.7604-11.4095-2.9253-23.5685-2.81-34.1738,1.7756,10.6053,4.5591,22.7537,4.6652,34.1618,1.7484Z"/>
  <path class="cls-3" d="M82.5018,127.3c-.4967-1.904-1.0914-3.7856-1.7636-5.6429-.6706,1.8535-1.2645,3.7313-1.7604,5.6309-2.9253,11.4095-2.81,23.5685,1.7756,34.1738,4.5591-10.6053,4.6652-22.7537,1.7484-34.1618Z"/>
  <path class="cls-3" d="M127.3074,78.9977c-1.904.4967-3.7856,1.0914-5.6429,1.7636,1.8535.6706,3.7313,1.2645,5.6309,1.7604,11.4095,2.9253,23.5685,2.81,34.1738-1.7756-10.6053-4.5591-22.7537-4.6652-34.1618-1.7484Z"/>
  <path class="cls-3" d="M79.0051,34.1921c.4967,1.904,1.0914,3.7856,1.7636,5.6429.6706-1.8535,1.2645-3.7313,1.7604-5.6309,2.9253-11.4095,2.81-23.5685-1.7756-34.1738-4.5591,10.6053-4.6652,22.7537-1.7484,34.1618Z"/>
  <circle class="cls-1" cx="39.8268" cy="39.8195" r="10.155"/>
  <circle class="cls-4" cx="121.6517" cy="39.8195" r="10.155"/>
  <circle class="cls-5" cx="39.8268" cy="121.6444" r="10.155"/>
  <circle class="cls-2" cx="121.6517" cy="121.6444" r="10.155"/>
  <path class="cls-2" d="M161.4688,80.7461c-10.5303,4.5963-19.5038,8.8572-27.6119,14.0457-8.0998,5.0956-15.2755,10.8436-21.7507,17.3076-6.4416,6.4959-12.1871,13.6644-17.2799,21.7612-5.1806,8.108-9.4504,17.0701-14.0728,27.6011,4.5587-10.6045,4.665-22.7534,1.7485-34.1617-.4967-1.9036-1.0914-3.7851-1.7635-5.6423,3.3642-9.2986,8.8633-17.9314,15.9444-24.9827,7.0647-7.0596,15.6901-12.5513,24.9815-15.9135,1.8535.6706,3.7313,1.2643,5.6309,1.7602,11.4095,2.9253,23.5685,2.81,34.1735-1.7756Z"/>
  <path class="cls-5" d="M80.7535,161.4616c-4.596-10.531-8.8579-19.5036-14.045-27.6123-5.0968-8.099-10.8448-15.2747-17.308-21.75-6.4965-6.442-13.664-12.187-21.7613-17.2803-8.1078-5.1799-17.0707-9.4501-27.6015-14.073,10.6053,4.5591,22.7537,4.6652,34.1618,1.7484,1.904-.4967,3.7856-1.0914,5.6429-1.7636,9.2982,3.3644,17.9305,8.8632,24.9815,15.9442,7.0603,7.0653,12.5521,15.6912,15.9146,24.9827-.6708,1.8537-1.2643,3.7313-1.7602,5.6309-2.9261,11.409-2.8102,23.5685,1.7752,34.173Z"/>
  <path class="cls-1" d="M79.0047,34.1923c.4967,1.9036,1.0917,3.7852,1.7638,5.6425-3.3642,9.2984-8.8633,17.9311-15.9446,24.9824-7.0644,7.0595-15.6901,12.5513-24.9815,15.9135-1.8535-.6706-3.7313-1.2645-5.6309-1.7604-11.4095-2.9253-23.5685-2.81-34.1738,1.7756,10.5308-4.5962,19.5041-8.8572,27.6121-14.0456,8.0998-5.0956,15.2755-10.8436,21.7507-17.3076,6.4419-6.4959,12.1871-13.6645,17.2799-21.7613,5.1803-8.1075,9.4498-17.0686,14.072-27.5986-4.5576,10.6041-4.6639,22.7519-1.7477,34.1593Z"/>
  <path class="cls-4" d="M161.4683,80.7459c-10.53-4.6229-19.4927-8.8928-27.6007-14.0727-8.0971-5.0933-15.2649-10.8383-21.7613-17.2803-6.4632-6.4753-12.2111-13.6511-17.3077-21.75-5.1871-8.1084-9.4487-17.0806-14.0445-27.6112,4.5848,10.6042,4.7005,22.7633,1.7747,34.1719-.4959,1.8996-1.0895,3.7774-1.7602,5.6312,3.3625,9.2913,8.8543,17.9171,15.9144,24.9824,7.0513,7.0812,15.6833,12.5798,24.9815,15.9442,1.8573-.6723,3.7392-1.2671,5.6429-1.7638,11.4078-2.9167,23.5562-2.8106,34.161,1.7482Z"/>
  <g>
    <path class="cls-3" d="M198.7368,111.1159c.8427-1.477,1.9937-2.6276,3.4525-3.4525,1.4588-.8249,3.0945-1.2374,4.9072-1.2374,2.1203,0,3.9777.5439,5.5728,1.6311,1.5945,1.0878,2.7092,2.592,3.3437,4.5131h-4.3768c-.4348-.9065-1.0467-1.5858-1.835-2.039-.7883-.4526-1.6991-.6799-2.7318-.6799-1.1059,0-2.0892.2584-2.9497.7751-.8609.5167-1.5317,1.2465-2.0118,2.1886s-.7204,2.0481-.7204,3.3165c0,1.2503.2402,2.3511.7204,3.303.4801.9512,1.1509,1.6855,2.0118,2.2015.8605.5167,1.8438.7751,2.9497.7751,1.0328,0,1.9435-.2312,2.7318-.6935.7883-.4617,1.4002-1.1461,1.835-2.052h4.3768c-.6346,1.9393-1.7444,3.448-3.3301,4.5261-1.5861,1.0781-3.4483,1.6175-5.5864,1.6175-1.8127,0-3.4483-.4118-4.9072-1.2367s-2.6098-1.971-3.4525-3.4389c-.8427-1.4679-1.2639-3.1352-1.2639-5.002s.4212-3.5386,1.2639-5.0156Z"/>
    <path class="cls-3" d="M232.6229,119.2577h-11.0099c.0907,1.0872.4711,1.9393,1.1419,2.5551.6702.6164,1.4951.9246,2.4738.9246,1.4135,0,2.4194-.6074,3.0177-1.8214h4.1049c-.4351,1.4498-1.2688,2.6412-2.501,3.5749-1.2329.9337-2.7458,1.3999-4.54,1.3999-1.4501,0-2.7503-.3218-3.9009-.9654-1.1513-.643-2.0484-1.5534-2.6914-2.7318-.6436-1.1778-.9651-2.5369-.9651-4.078,0-1.5579.317-2.9261.9515-4.1046.6342-1.1778,1.5223-2.0837,2.6642-2.7189,1.1416-.6339,2.4554-.9512,3.9417-.9512,1.4313,0,2.7137.3082,3.8469.924,1.1322.6164,2.0115,1.4912,2.6367,2.6237.6255,1.1325.9379,2.4327.9379,3.9013,0,.5433-.0366,1.0328-.1088,1.4679ZM228.79,116.702c-.0181-.9784-.3717-1.7619-1.0603-2.3511-.689-.5892-1.5317-.8839-2.5282-.8839-.9425,0-1.7357.2856-2.3786.8567-.6436.5705-1.0376,1.3637-1.1827,2.3783h7.1498Z"/>
    <path class="cls-3" d="M247.6558,112.0671c1.1053,1.1331,1.6583,2.7144,1.6583,4.7437v8.8353h-3.8061v-8.3186c0-1.196-.2988-2.1161-.8971-2.759-.598-.6436-1.4135-.9654-2.4466-.9654-1.0512,0-1.8804.3218-2.4874.9654-.6074.643-.9107,1.5631-.9107,2.759v8.3186h-3.8057v-15.0604h3.8057v1.8758c.5073-.6527,1.1555-1.1642,1.9438-1.5359s1.6537-.5575,2.5962-.5575c1.7943,0,3.244.5666,4.3497,1.6991Z"/>
    <path class="cls-3" d="M256.8171,113.7118v7.2858c0,.5076.1221.8741.3668,1.1008s.6566.3399,1.2371.3399h1.7671v3.2078h-2.3926c-3.2078,0-4.8116-1.5586-4.8116-4.6757v-7.2586h-1.7943v-3.1262h1.7943v-3.7245h3.8333v3.7245h3.3709v3.1262h-3.3709Z"/>
    <path class="cls-3" d="M276.281,119.2577h-11.0099c.0907,1.0872.4711,1.9393,1.1419,2.5551.6702.6164,1.4951.9246,2.4738.9246,1.4135,0,2.4194-.6074,3.0177-1.8214h4.1049c-.4351,1.4498-1.2688,2.6412-2.501,3.5749-1.2329.9337-2.7458,1.3999-4.54,1.3999-1.4501,0-2.7503-.3218-3.9009-.9654-1.1513-.643-2.0484-1.5534-2.6914-2.7318-.6436-1.1778-.9651-2.5369-.9651-4.078,0-1.5579.317-2.9261.9515-4.1046.6342-1.1778,1.5223-2.0837,2.6642-2.7189,1.1416-.6339,2.4554-.9512,3.9417-.9512,1.4313,0,2.7137.3082,3.8469.924,1.1322.6164,2.0115,1.4912,2.6367,2.6237.6255,1.1325.9379,2.4327.9379,3.9013,0,.5433-.0366,1.0328-.1088,1.4679ZM272.4481,116.702c-.0181-.9784-.3717-1.7619-1.0603-2.3511-.689-.5892-1.5317-.8839-2.5282-.8839-.9425,0-1.7357.2856-2.3786.8567-.6436.5705-1.0376,1.3637-1.1827,2.3783h7.1498Z"/>
    <path class="cls-3" d="M284.3409,111.0479c.7883-.4533,1.6897-.6799,2.705-.6799v3.9964h-1.0059c-1.1963,0-2.0979.281-2.705.8424-.6074.562-.9107,1.5404-.9107,2.9358v7.5034h-3.8057v-15.0604h3.8057v2.3375c.4895-.7971,1.1283-1.4219,1.9166-1.8752Z"/>
    <path class="cls-3" d="M301.8884,113.7118h-2.637v11.9343h-3.8605v-11.9343h-1.7127v-3.1262h1.7127v-.7615c0-1.8486.5255-3.2078,1.5767-4.0774,1.0509-.8703,2.637-1.2782,4.7576-1.2238v3.2084c-.9243-.0181-1.5679.1353-1.9302.4617-.3626.3263-.5436.9156-.5436,1.7671v.6255h2.637v3.1262Z"/>
    <path class="cls-3" d="M306.5913,124.9254c-1.1603-.643-2.0707-1.5534-2.7322-2.7318-.6618-1.1778-.9923-2.5369-.9923-4.078,0-1.5398.3399-2.8989,1.0195-4.0774.6796-1.1778,1.6081-2.0889,2.7862-2.7325,1.1781-.643,2.4919-.9648,3.942-.9648s2.7636.3218,3.9417.9648c1.1778.6436,2.107,1.5547,2.7866,2.7325.6796,1.1785,1.0195,2.5376,1.0195,4.0774,0,1.5411-.3493,2.9002-1.0467,4.078-.698,1.1785-1.6405,2.0889-2.8274,2.7318-1.1872.6436-2.5146.9654-3.9825.9654-1.4501,0-2.7552-.3218-3.9145-.9654ZM312.4496,122.0712c.6067-.3348,1.0914-.8379,1.4543-1.5087.3623-.6702.5436-1.486.5436-2.4469,0-1.431-.3762-2.5324-1.128-3.303-.7524-.7699-1.6719-1.1552-2.7594-1.1552s-1.9982.3853-2.7322,1.1552c-.734.7705-1.1011,1.872-1.1011,3.303,0,1.4323.3577,2.5331,1.0739,3.303.7158.7705,1.6175,1.1558,2.705,1.1558.6886,0,1.3361-.1677,1.9438-.5031Z"/>
    <path class="cls-3" d="M326.3407,111.0479c.7883-.4533,1.6897-.6799,2.705-.6799v3.9964h-1.0059c-1.1963,0-2.0979.281-2.705.8424-.6074.562-.9107,1.5404-.9107,2.9358v7.5034h-3.8057v-15.0604h3.8057v2.3375c.4895-.7971,1.1283-1.4219,1.9166-1.8752Z"/>
    <path class="cls-3" d="M340.7889,109.7426v4.7579h6.3887v3.0174h-6.3887v5.0292h7.2042v3.099h-11.0099v-19.0025h11.0099v3.099h-7.2042Z"/>
    <path class="cls-3" d="M363.5974,112.0671c1.1053,1.1331,1.6583,2.7144,1.6583,4.7437v8.8353h-3.8061v-8.3186c0-1.196-.2988-2.1161-.8971-2.759-.598-.6436-1.4135-.9654-2.4466-.9654-1.0512,0-1.8804.3218-2.4874.9654-.6074.643-.9107,1.5631-.9107,2.759v8.3186h-3.8057v-15.0604h3.8057v1.8758c.5073-.6527,1.1555-1.1642,1.9438-1.5359s1.6537-.5575,2.5962-.5575c1.7943,0,3.244.5666,4.3497,1.6991Z"/>
    <path class="cls-3" d="M382.2185,119.2577h-11.0099c.0907,1.0872.4711,1.9393,1.1419,2.5551.6702.6164,1.4951.9246,2.4738.9246,1.4135,0,2.4194-.6074,3.0177-1.8214h4.1049c-.4351,1.4498-1.2688,2.6412-2.501,3.5749-1.2329.9337-2.7458,1.3999-4.54,1.3999-1.4501,0-2.7503-.3218-3.9009-.9654-1.1513-.643-2.0484-1.5534-2.6914-2.7318-.6436-1.1778-.9651-2.5369-.9651-4.078,0-1.5579.317-2.9261.9515-4.1046.6342-1.1778,1.5223-2.0837,2.6642-2.7189,1.1416-.6339,2.4554-.9512,3.9417-.9512,1.4313,0,2.7137.3082,3.8469.924,1.1322.6164,2.0115,1.4912,2.6367,2.6237.6255,1.1325.9379,2.4327.9379,3.9013,0,.5433-.0366,1.0328-.1088,1.4679ZM378.3856,116.702c-.0181-.9784-.3717-1.7619-1.0603-2.3511-.689-.5892-1.5317-.8839-2.5282-.8839-.9425,0-1.7357.2856-2.3786.8567-.6436.5705-1.0376,1.3637-1.1827,2.3783h7.1498Z"/>
    <path class="cls-3" d="M390.2788,111.0479c.7883-.4533,1.6897-.6799,2.705-.6799v3.9964h-1.0059c-1.1963,0-2.0979.281-2.705.8424-.6074.562-.9107,1.5404-.9107,2.9358v7.5034h-3.8057v-15.0604h3.8057v2.3375c.4895-.7971,1.1283-1.4219,1.9166-1.8752Z"/>
    <path class="cls-3" d="M403.8574,111.0072c.8518.4442,1.5226,1.0192,2.0118,1.7263v-2.1478h3.8329v15.1692c0,1.3954-.281,2.6412-.8427,3.7381-.5617,1.0962-1.4045,1.9658-2.5282,2.6095-1.1238.643-2.4832.9654-4.0777.9654-2.1387,0-3.8922-.4992-5.2604-1.4951-1.3685-.9972-2.1433-2.3563-2.3242-4.078h3.7789c.1991.6883.6294,1.2367,1.2911,1.6447.6614.4079,1.4634.6119,2.4058.6119,1.1053,0,2.0024-.3309,2.6914-.9926.6886-.6618,1.0331-1.6628,1.0331-3.0038v-2.3382c-.4892.7071-1.1649,1.2963-2.0254,1.7671-.8609.4714-1.8441.7071-2.9494.7071-1.2688,0-2.4288-.3263-3.4797-.979-1.0512-.652-1.8804-1.5715-2.4874-2.759-.6074-1.1869-.9107-2.5505-.9107-4.0916,0-1.5223.3034-2.8717.9107-4.0502.607-1.1778,1.4313-2.0837,2.4738-2.7189,1.0418-.6339,2.2061-.9512,3.4933-.9512,1.1234,0,2.1109.2221,2.963.6663ZM405.3256,115.7372c-.3629-.6618-.8521-1.1688-1.4682-1.5223s-1.2775-.5303-1.9843-.5303-1.3594.1722-1.9574.5167-1.0833.8469-1.4543,1.5087c-.3717.6618-.5575,1.4452-.5575,2.3511,0,.9065.1858,1.6991.5575,2.379.371.6799.8605,1.2011,1.4679,1.5631.607.3626,1.2549.5439,1.9438.5439.7068,0,1.3682-.1768,1.9843-.5303s1.1053-.8605,1.4682-1.5223c.3623-.6611.5436-1.4543.5436-2.379,0-.924-.1813-1.7166-.5436-2.3783Z"/>
    <path class="cls-3" d="M427.2908,110.5856l-9.3245,22.1831h-4.0505l3.2622-7.5034-6.0351-14.6797h4.2681l3.8873,10.5207,3.942-10.5207h4.0505Z"/>
    <path class="cls-3" d="M223.7608,137.1711l-5.3012,18.9753h-4.4856l-3.561-13.511-3.7245,13.511-4.4584.0272-5.1108-19.0025h4.0777l3.3441,14.7341,3.8601-14.7341h4.2409l3.6429,14.6532,3.3709-14.6532h4.1049Z"/>
    <path class="cls-3" d="M228.4636,155.4257c-1.1603-.643-2.0707-1.5534-2.7322-2.7318-.6618-1.1778-.9923-2.5369-.9923-4.078,0-1.5398.3399-2.8989,1.0195-4.0774.6796-1.1778,1.6081-2.0889,2.7862-2.7325,1.1781-.643,2.4919-.9648,3.942-.9648s2.7636.3218,3.9417.9648c1.1778.6436,2.107,1.5547,2.7866,2.7325.6796,1.1785,1.0195,2.5376,1.0195,4.0774,0,1.5411-.3493,2.9002-1.0467,4.078-.698,1.1785-1.6405,2.0889-2.8274,2.7318-1.1872.6436-2.5146.9654-3.9825.9654-1.4501,0-2.7552-.3218-3.9145-.9654ZM234.322,152.5715c.6067-.3348,1.0914-.8379,1.4543-1.5087.3623-.6702.5436-1.486.5436-2.4469,0-1.431-.3762-2.5324-1.128-3.303-.7524-.7699-1.6719-1.1552-2.7594-1.1552s-1.9982.3853-2.7322,1.1552c-.734.7705-1.1011,1.872-1.1011,3.303,0,1.4323.3577,2.5331,1.0739,3.303.7158.7705,1.6175,1.1558,2.705,1.1558.6886,0,1.3361-.1677,1.9438-.5031Z"/>
    <path class="cls-3" d="M248.2127,141.5483c.7883-.4533,1.6897-.6799,2.705-.6799v3.9964h-1.0059c-1.1963,0-2.0979.281-2.705.8424-.6074.562-.9107,1.5404-.9107,2.9358v7.5034h-3.8057v-15.0604h3.8057v2.3375c.4895-.7971,1.1283-1.4219,1.9166-1.8752Z"/>
    <path class="cls-3" d="M261.8457,156.1464l-5.1108-6.4155v6.4155h-3.8057v-20.1169h3.8057v11.4447l5.0564-6.3883h4.948l-6.6334,7.5571,6.6875,7.5034h-4.9476Z"/>
    <path class="cls-3" d="M275.1666,144.2121h-2.637v11.9343h-3.8605v-11.9343h-1.7127v-3.1262h1.7127v-.7615c0-1.8486.5255-3.2078,1.5767-4.0774,1.0509-.8703,2.637-1.2782,4.7576-1.2238v3.2084c-.9243-.0181-1.5679.1353-1.9302.4617-.3626.3263-.5436.9156-.5436,1.7671v.6255h2.637v3.1262Z"/>
    <path class="cls-3" d="M279.8692,155.4257c-1.1603-.643-2.0707-1.5534-2.7322-2.7318-.6618-1.1778-.9923-2.5369-.9923-4.078,0-1.5398.3399-2.8989,1.0195-4.0774.6796-1.1778,1.6081-2.0889,2.7862-2.7325,1.1781-.643,2.4919-.9648,3.942-.9648s2.7636.3218,3.9417.9648c1.1778.6436,2.107,1.5547,2.7866,2.7325.6796,1.1785,1.0195,2.5376,1.0195,4.0774,0,1.5411-.3493,2.9002-1.0467,4.078-.698,1.1785-1.6405,2.0889-2.8274,2.7318-1.1872.6436-2.5146.9654-3.9825.9654-1.4501,0-2.7552-.3218-3.9145-.9654ZM285.7275,152.5715c.6067-.3348,1.0914-.8379,1.4543-1.5087.3623-.6702.5436-1.486.5436-2.4469,0-1.431-.3762-2.5324-1.128-3.303-.7524-.7699-1.6719-1.1552-2.7594-1.1552s-1.9982.3853-2.7322,1.1552c-.734.7705-1.1011,1.872-1.1011,3.303,0,1.4323.3577,2.5331,1.0739,3.303.7158.7705,1.6175,1.1558,2.705,1.1558.6886,0,1.3361-.1677,1.9438-.5031Z"/>
    <path class="cls-3" d="M299.6186,141.5483c.7883-.4533,1.6897-.6799,2.705-.6799v3.9964h-1.0059c-1.1963,0-2.0979.281-2.705.8424-.6074.562-.9107,1.5404-.9107,2.9358v7.5034h-3.8057v-15.0604h3.8057v2.3375c.4895-.7971,1.1283-1.4219,1.9166-1.8752Z"/>
    <path class="cls-3" d="M304.3075,144.5249c.6342-1.1688,1.5129-2.0753,2.637-2.7189,1.1234-.643,2.41-.9648,3.8601-.9648,1.8664,0,3.4117.4669,4.6352,1.3999,1.2231.9337,2.0429,2.243,2.4602,3.9284h-4.1049c-.2176-.6527-.5847-1.1642-1.1011-1.5359s-1.1555-.5575-1.9166-.5575c-1.0875,0-1.9484.3943-2.5826,1.1824-.6346.7887-.9515,1.9082-.9515,3.3573,0,1.4323.317,2.5421.9515,3.3301.6342.7887,1.4951,1.183,2.5826,1.183,1.5404,0,2.546-.689,3.0177-2.0662h4.1049c-.4173,1.6311-1.2416,2.9267-2.4738,3.8877-1.2329.9609-2.773,1.4407-4.6216,1.4407-1.4501,0-2.7367-.3218-3.8601-.9654-1.1241-.643-2.0027-1.5495-2.637-2.7182-.6346-1.1688-.9515-2.5324-.9515-4.0916,0-1.5579.317-2.9222.9515-4.091Z"/>
    <path class="cls-3" d="M334.0477,149.7581h-11.0099c.0907,1.0872.4711,1.9393,1.1419,2.5551.6702.6164,1.4951.9246,2.4738.9246,1.4135,0,2.4194-.6074,3.0177-1.8214h4.1049c-.4351,1.4498-1.2688,2.6412-2.501,3.5749-1.2329.9337-2.7458,1.3999-4.54,1.3999-1.4501,0-2.7503-.3218-3.9009-.9654-1.1513-.643-2.0484-1.5534-2.6914-2.7318-.6436-1.1778-.9651-2.5369-.9651-4.078,0-1.5579.317-2.9261.9515-4.1046.6342-1.1778,1.5223-2.0837,2.6642-2.7189,1.1416-.6339,2.4554-.9512,3.9417-.9512,1.4313,0,2.7137.3082,3.8469.924,1.1322.6164,2.0115,1.4912,2.6367,2.6237.6255,1.1325.9379,2.4327.9379,3.9013,0,.5433-.0366,1.0328-.1088,1.4679ZM330.2147,147.2023c-.0181-.9784-.3717-1.7619-1.0603-2.3511-.689-.5892-1.5317-.8839-2.5282-.8839-.9425,0-1.7357.2856-2.3786.8567-.6436.5705-1.0376,1.3637-1.1827,2.3783h7.1498Z"/>
    <path class="cls-3" d="M354.205,138.3399c1.5129.7796,2.682,1.8894,3.5069,3.3308.8243,1.4407,1.2367,3.1126,1.2367,5.0156s-.4125,3.5658-1.2367,4.9884c-.8249,1.4226-1.994,2.524-3.5069,3.303-1.5136.779-3.267,1.1688-5.2604,1.1688h-6.6331v-18.9753h6.6331c1.9934,0,3.7468.3898,5.2604,1.1688ZM353.4302,151.2804c1.0872-1.0872,1.6311-2.6185,1.6311-4.5941s-.5439-3.5205-1.6311-4.6355c-1.0875-1.1144-2.6282-1.6719-4.6216-1.6719h-2.6914v12.5326h2.6914c1.9934,0,3.5341-.5439,4.6216-1.6311Z"/>
    <path class="cls-3" d="M375.151,149.7581h-11.0099c.0907,1.0872.4711,1.9393,1.1419,2.5551.6702.6164,1.4951.9246,2.4738.9246,1.4135,0,2.4194-.6074,3.0177-1.8214h4.1049c-.4351,1.4498-1.2688,2.6412-2.501,3.5749-1.2329.9337-2.7458,1.3999-4.54,1.3999-1.4501,0-2.7503-.3218-3.9009-.9654-1.1513-.643-2.0484-1.5534-2.6914-2.7318-.6436-1.1778-.9651-2.5369-.9651-4.078,0-1.5579.317-2.9261.9515-4.1046.6342-1.1778,1.5223-2.0837,2.6642-2.7189,1.1416-.6339,2.4554-.9512,3.9417-.9512,1.4313,0,2.7137.3082,3.8469.924,1.1322.6164,2.0115,1.4912,2.6367,2.6237.6255,1.1325.9379,2.4327.9379,3.9013,0,.5433-.0366,1.0328-.1088,1.4679ZM371.318,147.2023c-.0181-.9784-.3717-1.7619-1.0603-2.3511-.689-.5892-1.5317-.8839-2.5282-.8839-.9425,0-1.7357.2856-2.3786.8567-.6436.5705-1.0376,1.3637-1.1827,2.3783h7.1498Z"/>
    <path class="cls-3" d="M383.7684,152.6395l3.8061-11.5535h4.0505l-5.5728,15.0604h-4.6216l-5.5456-15.0604h4.0777l3.8057,11.5535Z"/>
    <path class="cls-3" d="M407.1202,149.7581h-11.0099c.0907,1.0872.4711,1.9393,1.1419,2.5551.6702.6164,1.4951.9246,2.4738.9246,1.4135,0,2.4194-.6074,3.0177-1.8214h4.1049c-.4351,1.4498-1.2688,2.6412-2.501,3.5749-1.2329.9337-2.7458,1.3999-4.54,1.3999-1.4501,0-2.7503-.3218-3.9009-.9654-1.1513-.643-2.0484-1.5534-2.6914-2.7318-.6436-1.1778-.9651-2.5369-.9651-4.078,0-1.5579.317-2.9261.9515-4.1046.6342-1.1778,1.5223-2.0837,2.6642-2.7189,1.1416-.6339,2.4554-.9512,3.9417-.9512,1.4313,0,2.7137.3082,3.8469.924,1.1322.6164,2.0115,1.4912,2.6367,2.6237.6255,1.1325.9379,2.4327.9379,3.9013,0,.5433-.0366,1.0328-.1088,1.4679ZM403.2872,147.2023c-.0181-.9784-.3717-1.7619-1.0603-2.3511-.689-.5892-1.5317-.8839-2.5282-.8839-.9425,0-1.7357.2856-2.3786.8567-.6436.5705-1.0376,1.3637-1.1827,2.3783h7.1498Z"/>
    <path class="cls-3" d="M413.2638,136.0295v20.1169h-3.8057v-20.1169h3.8057Z"/>
    <path class="cls-3" d="M419.2448,155.4257c-1.1603-.643-2.0707-1.5534-2.7322-2.7318-.6618-1.1778-.9923-2.5369-.9923-4.078,0-1.5398.3399-2.8989,1.0195-4.0774.6796-1.1778,1.6081-2.0889,2.7862-2.7325,1.1781-.643,2.4919-.9648,3.942-.9648s2.7636.3218,3.9417.9648c1.1778.6436,2.107,1.5547,2.7866,2.7325.6796,1.1785,1.0195,2.5376,1.0195,4.0774,0,1.5411-.3493,2.9002-1.0467,4.078-.698,1.1785-1.6405,2.0889-2.8274,2.7318-1.1872.6436-2.5146.9654-3.9825.9654-1.4501,0-2.7552-.3218-3.9145-.9654ZM425.1032,152.5715c.6067-.3348,1.0914-.8379,1.4543-1.5087.3623-.6702.5436-1.486.5436-2.4469,0-1.431-.3762-2.5324-1.128-3.303-.7524-.7699-1.6719-1.1552-2.7594-1.1552s-1.9982.3853-2.7322,1.1552c-.734.7705-1.1011,1.872-1.1011,3.303,0,1.4323.3577,2.5331,1.0739,3.303.7158.7705,1.6175,1.1558,2.705,1.1558.6886,0,1.3361-.1677,1.9438-.5031Z"/>
    <path class="cls-3" d="M439.1027,141.5347c.8605-.4623,1.8438-.6935,2.9494-.6935,1.2869,0,2.4512.3173,3.4933.9512,1.0422.6352,1.8664,1.5365,2.4738,2.7053.607,1.1688.9107,2.524.9107,4.0638,0,1.5411-.3037,2.9047-.9107,4.0916-.6074,1.1875-1.4316,2.107-2.4738,2.759-1.0422.6527-2.2064.979-3.4933.979-1.1056,0-2.0795-.2266-2.9222-.6799-.8427-.4526-1.5272-1.0237-2.0526-1.7127v9.3248h-3.8057v-22.2374h3.8057v2.175c.4895-.689,1.1645-1.2646,2.0254-1.7263ZM444.4854,146.2104c-.3717-.6618-.8612-1.1642-1.4682-1.5087-.6074-.3445-1.2639-.5167-1.9707-.5167-.689,0-1.3368.1768-1.9438.5303-.6074.3535-1.0969.8657-1.4679,1.5359-.3717.6708-.5575,1.4588-.5575,2.3647,0,.9065.1858,1.6952.5575,2.3654.371.6708.8605,1.1824,1.4679,1.5359.607.3535,1.2549.5303,1.9438.5303.7068,0,1.3633-.1813,1.9707-.5439.607-.362,1.0966-.8787,1.4682-1.5495.371-.6702.5572-1.4679.5572-2.3926,0-.9059-.1862-1.6894-.5572-2.3511Z"/>
    <path class="cls-3" d="M474.3347,142.5675c1.1322,1.1331,1.6991,2.7144,1.6991,4.7437v8.8353h-3.8061v-8.3186c0-1.1778-.2991-2.0798-.8971-2.7053-.598-.6248-1.4135-.9376-2.4466-.9376s-1.8532.3127-2.4602.9376c-.6074.6255-.9107,1.5275-.9107,2.7053v8.3186h-3.8061v-8.3186c0-1.1778-.2988-2.0798-.8971-2.7053-.598-.6248-1.4135-.9376-2.4466-.9376-1.0512,0-1.8804.3127-2.4874.9376-.6074.6255-.9107,1.5275-.9107,2.7053v8.3186h-3.8057v-15.0604h3.8057v1.8214c.4895-.6346,1.1189-1.1325,1.8894-1.4951.7702-.3626,1.6175-.5439,2.5418-.5439,1.1778,0,2.2291.2493,3.1534.7479s1.6401,1.2095,2.1478,2.1335c.4892-.8696,1.2005-1.567,2.1339-2.0928.9334-.5258,1.9438-.7887,3.0313-.7887,1.8486,0,3.3389.5666,4.472,1.6991Z"/>
    <path class="cls-3" d="M492.9969,149.7581h-11.0099c.0907,1.0872.4711,1.9393,1.1419,2.5551.6702.6164,1.4951.9246,2.4738.9246,1.4135,0,2.4194-.6074,3.0177-1.8214h4.1049c-.4351,1.4498-1.2688,2.6412-2.501,3.5749-1.2329.9337-2.7458,1.3999-4.54,1.3999-1.4501,0-2.7503-.3218-3.9009-.9654-1.1513-.643-2.0484-1.5534-2.6914-2.7318-.6436-1.1778-.9651-2.5369-.9651-4.078,0-1.5579.317-2.9261.9515-4.1046.6342-1.1778,1.5223-2.0837,2.6642-2.7189,1.1416-.6339,2.4554-.9512,3.9417-.9512,1.4313,0,2.7137.3082,3.8469.924,1.1322.6164,2.0115,1.4912,2.6367,2.6237.6255,1.1325.9379,2.4327.9379,3.9013,0,.5433-.0366,1.0328-.1088,1.4679ZM489.164,147.2023c-.0181-.9784-.3717-1.7619-1.0603-2.3511-.689-.5892-1.5317-.8839-2.5282-.8839-.9425,0-1.7357.2856-2.3786.8567-.6436.5705-1.0376,1.3637-1.1827,2.3783h7.1498Z"/>
    <path class="cls-3" d="M508.0298,142.5675c1.1053,1.1331,1.6583,2.7144,1.6583,4.7437v8.8353h-3.8061v-8.3186c0-1.196-.2988-2.1161-.8971-2.759-.598-.6436-1.4135-.9654-2.4466-.9654-1.0512,0-1.8804.3218-2.4874.9654-.6074.643-.9107,1.5631-.9107,2.759v8.3186h-3.8057v-15.0604h3.8057v1.8758c.5073-.6527,1.1555-1.1642,1.9438-1.5359s1.6537-.5575,2.5962-.5575c1.7943,0,3.244.5666,4.3497,1.6991Z"/>
    <path class="cls-3" d="M517.1911,144.2121v7.2858c0,.5076.1221.8741.3668,1.1008s.6566.3399,1.2371.3399h1.7671v3.2078h-2.3926c-3.2078,0-4.8116-1.5586-4.8116-4.6757v-7.2586h-1.7943v-3.1262h1.7943v-3.7245h3.8333v3.7245h3.3709v3.1262h-3.3709Z"/>
  </g>
</svg>